<?xml version="1.0" encoding="UTF-8" standalone="no"?>
<!-- Created with Inkscape (http://www.inkscape.org/) -->

<svg
   width="500mm"
   height="500mm"
   viewBox="0 0 500 500"
   version="1.1"
   id="svg1"
   xml:space="preserve"
   sodipodi:docname="Tools.svg"
   inkscape:version="1.4.2 (f4327f4, 2025-05-13)"
   inkscape:export-filename="Mill.png"
   inkscape:export-xdpi="5.0799999"
   inkscape:export-ydpi="5.0799999"
   xmlns:inkscape="http://www.inkscape.org/namespaces/inkscape"
   xmlns:sodipodi="http://sodipodi.sourceforge.net/DTD/sodipodi-0.dtd"
   xmlns="http://www.w3.org/2000/svg"
   xmlns:svg="http://www.w3.org/2000/svg"><sodipodi:namedview
     id="namedview1"
     pagecolor="#ffffff"
     bordercolor="#000000"
     borderopacity="0.25"
     inkscape:showpageshadow="2"
     inkscape:pageopacity="0.0"
     inkscape:pagecheckerboard="0"
     inkscape:deskcolor="#d1d1d1"
     inkscape:document-units="mm"
     inkscape:zoom="0.25417602"
     inkscape:cx="1217.6601"
     inkscape:cy="761.28346"
     inkscape:window-width="1920"
     inkscape:window-height="1009"
     inkscape:window-x="-8"
     inkscape:window-y="-8"
     inkscape:window-maximized="1"
     inkscape:current-layer="layer1" /><defs
     id="defs1" /><g
     inkscape:label="Слой 1"
     inkscape:groupmode="layer"
     id="layer1"
     style="display:inline"><g
       id="g8"
       inkscape:label="Thread"
       style="display:none"><path
         style="display:inline;fill:none;stroke:#000000;stroke-width:1.31573;stroke-dasharray:none;stroke-opacity:1"
         d="m 31.823451,130.13418 c -0.611433,-0.70154 -2.248821,-2.91577 -3.638639,-4.92048 l -2.526941,-3.64496 V 98.904141 76.239518 l 3.304264,-3.76785 c 1.817344,-2.072318 3.554055,-3.771799 3.859356,-3.776636 0.684691,-0.01125 3.914305,3.596163 3.944549,4.405466 0.01209,0.323527 0.66937,1.49742 1.46062,2.608627 l 1.438639,2.020377 H 160.21485 280.76442 l 2.62978,-2.089879 c 1.44637,-1.149424 2.97633,-2.503823 3.39992,-3.009758 0.42358,-0.505946 2.07192,-1.916898 3.66298,-3.135453 l 2.89283,-2.215575 86.14839,0.181991 86.14838,0.18198 2.02812,1.739081 c 1.11547,0.956498 3.07193,2.632365 4.34773,3.724144 l 2.31958,1.985062 v 23.844046 23.844039 l -4.61333,3.56146 -4.61335,3.56145 h -86.1913 -86.1913 l -5.6864,-4.17381 -5.68642,-4.1738 H 160.46529 39.570561 v 0.75952 c 0,0.75426 -1.522186,2.93108 -4.882885,6.98283 l -1.752528,2.11288 z m 0.514377,-4.63482 -0.399592,-1.51016 -2.23268,-1.54516 c -3.129203,-2.16564 -3.147565,-1.60805 -0.09832,2.98575 l 2.659162,4.00612 0.235512,-1.2132 c 0.129531,-0.66726 0.0557,-1.89277 -0.164082,-2.72335 z m 4.072951,-0.0134 c 3.004845,-3.95974 2.871606,-4.53546 -0.578535,-2.49983 l -2.522393,1.48825 v 2.48194 c 0,1.36508 0.121862,2.35152 0.270807,2.1921 0.148945,-0.15941 1.4225,-1.80753 2.830121,-3.66246 z M 464.43673,98.772381 464.61802,68.68619 h -85.91824 -85.91825 v 30.262841 30.262839 l 85.73695,-0.17665 85.73694,-0.17665 z m 8.51413,0.0558 V 75.04011 l -2.95644,-2.373412 c -1.62604,-1.305383 -3.34774,-2.59695 -3.82599,-2.870168 l -0.86955,-0.496755 v 29.646386 29.646369 l 3.82599,-2.98813 3.82599,-2.98815 z m -180.86498,0.11817 V 70.077533 h -0.5359 c -0.29475,0 -2.40774,1.719157 -4.69554,3.820354 -2.28779,2.101196 -4.39439,3.822885 -4.68135,3.825978 l -0.52173,0.0056 0.009,21.390756 0.008,21.390749 4.92067,3.65209 c 2.70638,2.00864 5.05026,3.65209 5.20866,3.65209 0.15839,0 0.28798,-12.99098 0.28798,-28.868839 z M 59.222236,120.3 80.612997,120.08897 v -0.53522 c 0,-0.29436 -1.36469,-1.21677 -3.03264,-2.04979 l -3.03264,-1.51457 H 57.146575 39.745432 l -2.616148,-2.39629 -2.616148,-2.39631 -1.623234,1.17894 c -0.892779,0.64842 -1.633072,1.4378 -1.645095,1.75417 -0.01203,0.31639 -0.99796,1.55135 -2.190971,2.74435 l -2.16911,2.16911 1.647385,1.26526 c 0.90606,0.69589 2.228925,1.70615 2.939699,2.24503 l 1.292314,0.97976 2.533675,-1.5112 2.533675,-1.51119 z M 280.95574,99.989811 V 79.120779 H 160.05517 39.154612 l -1.70502,-2.827284 C 36.51183,74.738498 35.207173,72.782022 34.550353,71.945787 l -1.194217,-1.520449 -0.01856,5.217266 -0.01856,5.217256 1.428027,2.086909 c 0.785416,1.147793 1.707354,2.771872 2.048753,3.609082 l 0.620727,1.52217 17.946156,0.24147 17.946155,0.24147 2.434721,1.38336 c 1.339092,0.76084 3.452092,2.13907 4.695542,3.06271 l 2.2608,1.67935 v 0.91262 0.91264 H 61.152044 39.604187 l -2.277625,-1.38867 c -1.252694,-0.76377 -2.512403,-1.38985 -2.799351,-1.39126 l -0.521726,-0.003 v 7.874559 7.87458 l 3.235955,2.90776 3.235957,2.90777 h 17.413451 17.413451 l 3.013958,1.45903 3.01396,1.45902 0.70831,1.32351 0.70832,1.32351 H 181.8523 280.95574 Z M 29.01902,115.29376 c 0.342894,0 1.448606,-1.19071 2.457137,-2.64601 l 1.833694,-2.64602 v -8.14957 -8.149569 l -1.912995,0.4573 c -1.052148,0.25152 -2.460809,0.73805 -3.130356,1.08118 l -1.21736,0.62388 0.0441,11.279589 0.0441,11.27958 0.629125,-1.56518 c 0.346018,-0.86084 0.909674,-1.56518 1.252568,-1.56518 z M 81.308627,95.394401 c 0,-0.8343 -3.82514,-3.43466 -7.269147,-4.94163 l -3.513183,-1.53724 -16.886355,-0.0279 -16.886355,-0.0279 -0.646991,-1.56518 c -0.355845,-0.86084 -1.267782,-2.34572 -2.026525,-3.299732 l -1.379534,-1.734547 -0.477109,1.386742 c -0.26241,0.762697 -1.41208,3.360747 -2.554822,5.773437 -1.142741,2.4127 -1.964831,4.49606 -1.826864,4.62971 0.137968,0.13364 1.594394,-0.21315 3.236505,-0.77065 l 2.985653,-1.01363 2.927239,1.70552 2.927238,1.70551 20.695128,0.0695 20.695122,0.0696 z M 31.142872,83.944498 32.614215,80.76842 v -5.434921 -5.434897 l -2.754008,3.045903 -2.754008,3.045915 -0.02798,8.347614 -0.02799,8.347617 1.310645,-2.78254 c 0.720854,-1.5304 1.972751,-4.21177 2.78199,-5.958613 z"
         id="path33" /><path
         style="fill:#138d00;fill-opacity:1;stroke:none;stroke-width:3.93428"
         d="m 313.95444,449.0411 c -8.64888,-14.75768 -26.62329,-18.23728 -94.20759,-18.23728 h -65.87931 l -11.03456,-10.57177 c -9.82082,-9.40895 -11.03455,-13.31889 -11.03455,-35.54696 0,-23.47309 0.45769,-24.73024 7.60992,-20.90248 4.57089,2.44627 41.49303,4.07271 92.45561,4.07271 78.2095,0 84.84017,-0.53851 84.77501,-6.885 -0.0398,-3.87356 -8.62386,-12.47764 -19.62571,-19.6714 l -19.55502,-12.78642 -65.94492,-0.0249 -65.94491,-0.0249 -6.88499,-12.0968 c -3.78674,-6.65324 -6.83788,-16.822 -6.7803,-22.59724 l 0.10469,-10.50045 6.70798,10.81928 6.70798,10.81927 h 455.46541 455.46542 v 74.75135 74.75135 H 686.72761 c -308.08646,0 -370.15079,-0.89381 -372.77317,-5.36841 z"
         id="path1"
         transform="scale(0.26458333)" /><path
         style="fill:#138d00;fill-opacity:1;stroke:none;stroke-width:3.93428"
         d="m 1111.4335,374.74031 10e-4,-109.17631 h 321.2662 321.2663 l -2.7277,107.01951 c -1.5002,58.86073 -3.1247,107.41662 -3.61,107.90197 -0.4854,0.48534 -143.8282,1.4559 -318.5397,2.15679 l -317.6572,1.27435 z"
         id="path2"
         transform="scale(0.26458333)" /><path
         style="fill:#138d00;fill-opacity:1;stroke:none;stroke-width:1.39098"
         d="m 1083.2245,465.11457 -15.6485,-11.45749 v -78.24686 -78.24687 l 3.8252,-2.73252 c 2.1039,-1.50289 9.1457,-7.47385 15.6485,-13.26879 6.5029,-5.79494 12.2928,-10.55436 12.8666,-10.57648 1.2692,-0.0489 1.1388,188.19707 -0.1376,198.60291 l -0.9056,7.38359 z"
         id="path3"
         transform="scale(0.26458333)" /><path
         style="fill:#138d00;fill-opacity:1;stroke:none;stroke-width:2.78196"
         d="m 1762.3698,374.40699 c 0,-56.74139 0.6928,-103.16617 1.5396,-103.16617 0.8468,0 5.8543,3.44267 11.1278,7.65038 l 9.5881,7.65038 10e-5,86.70239 1e-4,86.7024 -11.1279,8.8134 -11.1278,8.8134 z"
         id="path8"
         transform="scale(0.26458333)" /><path
         style="display:inline;fill:#ffffff;fill-opacity:1;stroke:none;stroke-width:0.695489"
         d="m 118.92867,459.56546 c -2.67764,-2.07563 -6.69515,-5.18012 -8.9278,-6.89887 l -4.05937,-3.12499 6.62238,-6.82469 c 3.64232,-3.75358 7.19037,-8.01723 7.88457,-9.47478 0.72662,-1.52563 3.05101,-4.05337 5.47803,-5.95729 l 4.21585,-3.3072 9.45961,8.65515 9.4596,8.65515 h 66.2427 66.24269 l 8.06124,4.22379 c 4.43369,2.32308 8.31464,4.46995 8.62435,4.77082 0.73465,0.71368 -31.88576,1.3237 -100.67479,1.88268 l -55.60038,0.4518 -7.78397,4.70102 c -4.28118,2.58556 -8.36724,4.99807 -9.08013,5.36115 -1.04027,0.52981 -2.25731,-0.0849 -6.16458,-3.11374 z"
         id="path23"
         transform="scale(0.26458333)" /><path
         style="display:inline;fill:#ffffff;fill-opacity:1;stroke:none;stroke-width:0.695489"
         d="m 105.36662,399.54685 v -35.43478 l 3.4158,-1.73092 c 2.58597,-1.31041 12.40153,-4.55192 13.78359,-4.55192 0.10331,0 0.18785,12.92416 0.18785,28.72035 v 28.72034 l -4.9386,6.92348 c -5.89476,8.26393 -7.11961,9.64403 -10.14163,11.42706 l -2.30701,1.36117 z"
         id="path24"
         transform="scale(0.26458333)" /><path
         style="display:inline;fill:#ffffff;fill-opacity:1;stroke:none;stroke-width:0.695489"
         d="m 161.53781,358.70014 -10.24805,-0.21249 -10.68178,-6.24087 c -5.87497,-3.43247 -11.10932,-6.24087 -11.63187,-6.24087 -0.52255,0 -4.94022,1.31688 -9.81705,2.92641 -4.87682,1.60952 -9.06063,2.73271 -9.29736,2.49599 -0.23673,-0.23673 2.60543,-7.10883 6.3159,-15.27134 3.71047,-8.16251 7.05164,-15.70159 7.42481,-16.75352 0.37317,-1.05193 0.93821,-1.9126 1.25564,-1.9126 1.02316,0 7.25034,9.92452 9.64016,15.36392 l 2.31949,5.27933 21.9443,0.45846 c 12.06937,0.25215 41.21917,0.46666 64.77735,0.47667 l 42.83304,0.0182 9.11515,4.04524 c 9.63875,4.27762 20.55931,10.46322 24.61608,13.943 l 2.43421,2.088 -65.37599,-0.12552 c -35.95679,-0.069 -69.98761,-0.22115 -75.62403,-0.33802 z"
         id="path25"
         transform="scale(0.26458333)" /><path
         style="display:inline;fill:#ffffff;fill-opacity:1;stroke:none;stroke-width:0.695489"
         d="m 105.41575,312.45812 -0.0491,-24.15868 7.47651,-8.23958 7.47651,-8.23958 0.18616,16.09763 0.18615,16.09763 -6.34851,13.51868 c -3.49169,7.43527 -6.91778,14.77055 -7.61354,16.30063 -1.25314,2.75584 -1.26548,2.55515 -1.31415,-21.37673 z"
         id="path26"
         transform="scale(0.26458333)" /></g><g
       id="g12"
       inkscape:label="Mill"
       style="display:inline"
       transform="matrix(1,0,0,-1,0,196.69778)"><path
         style="display:inline;fill:#000000;stroke-width:1.01563"
         d="M 472.02013,126.59484 475,123.30212 V 98.080791 72.859469 l -3.2923,-2.979495 -3.29231,-2.979495 -167.41232,0.656404 -167.41234,0.656392 -6.77985,2.208488 -6.77986,2.208487 -9.55327,-3.004875 -9.55327,-3.004875 -17.293931,1.133348 c -9.511675,0.623328 -20.535313,1.94499 -24.496995,2.937015 l -7.203048,1.80369 -7.602616,-2.693003 -7.602617,-2.693002 h -5.862635 -5.862634 v 31.274133 31.274139 h 3.658475 c 2.012153,0 8.406755,-1.23041 14.210208,-2.73424 l 10.551734,-2.73422 7.474373,1.88206 c 4.1109,1.03514 14.330684,2.36015 22.710625,2.94446 l 15.23628,1.0624 11.293431,-2.83624 11.29344,-2.83624 6.08107,2.0708 6.08109,2.0708 167.72476,0.67059 167.72476,0.67057 z m -311.49889,-0.26636 c 1.43339,-0.81687 5.34265,-2.04825 8.68725,-2.73639 l 6.08108,-1.25117 -1.73745,1.77337 c -1.61966,1.65315 -6.92792,3.08527 -13.03088,3.51562 l -2.60618,0.18378 z m -64.285722,-0.50294 c 2.38899,-1.02226 9.816602,-4.37005 16.505782,-7.43955 l 12.16217,-5.5809 24.17614,-15.901859 c 23.33801,-15.350594 26.81107,-17.019138 24.86406,-11.94528 l -0.90647,2.36221 -18.06781,12.27819 c -9.93728,6.753009 -23.11293,14.834539 -29.27921,17.958969 l -11.21141,5.68075 -8.68727,2.14852 c -4.77799,1.18168 -9.860042,2.18206 -11.293432,2.22305 l -2.60618,0.0746 z m 83.782742,-1.10634 -2.22112,-1.40949 4.00565,-1.82511 c 2.20311,-1.00379 6.52549,-3.94538 9.6053,-6.53687 l 5.59963,-4.71179 v -4.98759 -4.98759 l -4.778,-4.527669 c -2.62789,-2.49021 -6.92807,-5.66934 -9.55598,-7.06474 l -4.77799,-2.53707 v -2.431064 -2.431058 l 9.86453,-5.34285 9.86453,-5.342861 H 332.8375 468.05019 v 27.799233 27.799239 l -142.90541,-0.0267 -142.9054,-0.0267 z m -53.58095,-1.67452 -2.71988,-1.52212 5.37983,-2.22839 c 2.95892,-1.22563 14.86038,-8.69096 26.44767,-16.58963 l 21.06783,-14.361229 5.60931,3.30955 c 3.08511,1.82028 6.95072,4.79184 8.59025,6.60351 l 2.98096,3.293919 -0.56459,4.87551 -0.56459,4.87553 -5.84985,3.9291 -5.84982,3.92912 -3.70616,-0.22783 c -3.01459,-0.18532 -16.32766,3.35251 -24.55557,6.52545 -0.9556,0.3685 -6.64426,0.31892 -12.64149,-0.11014 l -10.90402,-0.78019 z m -65.565603,0.38808 -2.933627,-1.12574 13.501997,-8.5651 c 7.426111,-4.71079 19.756831,-12.90641 27.401621,-18.212499 l 13.899602,-9.6474 14.76834,-7.214931 14.76835,-7.214917 24.32432,-0.296449 24.32432,-0.296449 -6.08107,3.264165 c -3.34459,1.795286 -7.26782,3.296936 -8.71826,3.336986 l -2.63718,0.07279 -25.44038,16.407485 C 117.44591,113.67829 107.74309,118.87689 93.808979,123.00192 l -10.60435,3.1393 -9.699635,-0.79138 c -5.334809,-0.43526 -11.019788,-1.29797 -12.633285,-1.91712 z M 38.89961,122.04075 C 49.322084,117.68428 64.085843,109.08811 73.648644,101.80817 87.864549,90.985951 120.09522,73.999285 126.24172,74.089825 l 2.13666,0.0315 -8.97412,4.948414 C 114.46849,81.791362 101.95884,89.856421 91.60503,96.992091 61.973072,117.41392 44.689697,125.94675 32.818535,126.01506 l -3.474909,0.02 z M 469.78765,98.280141 v -26.16432 l 1.73745,1.073813 1.73744,1.07379 v 23.932227 23.932199 l -1.15829,1.1583 c -0.63707,0.63707 -1.41892,1.1583 -1.73746,1.1583 -0.31853,0 -0.57914,-11.77394 -0.57914,-26.164309 z m -440.546848,7.444739 0.971556,-0.97155 1.078033,1.07804 1.078045,1.07804 -1.479616,8.33316 -1.479616,8.33316 -0.569973,-8.43965 c -0.313486,-4.64179 -0.132775,-8.87683 0.401571,-9.4112 z m 5.15107,8.06087 1.148733,-7.18378 3.416957,-4.34396 c 1.879329,-2.389179 3.416958,-5.000809 3.416958,-5.803659 v -1.45971 l -5.212354,1.04248 -5.212364,1.04246 v -0.93015 c 0,-1.60476 22.867115,-15.454596 32.940198,-19.950748 l 9.627377,-4.29723 14.768341,-0.831274 14.768332,-0.831296 5.14076,2.00466 5.14075,2.004648 -12.41793,6.738132 C 95.087759,84.692301 82.219419,92.631821 73.321276,98.629691 59.95383,107.64016 36.473151,120.94321 33.899565,120.9642 c -0.361037,0.003 -0.139496,-3.22736 0.492307,-7.17845 z m -4.179514,-12.79689 -2.162936,-2.606179 5.859456,0.0552 5.859465,0.0552 -3.372625,2.550919 c -4.090506,3.09391 -3.565901,3.09859 -6.18336,-0.0552 z M 29.672365,89.835251 30.54451,86.500181 43.302169,80.27926 c 7.016718,-3.421496 13.713311,-6.220912 14.881308,-6.220912 h 2.12363 l -14.613009,9.385729 c -8.037166,5.162154 -15.126208,9.462344 -15.753444,9.555984 l -1.140434,0.17026 z m -0.646888,-9.152869 0.912547,-2.280398 0.137161,3.330124 0.137171,3.330103 -1.049707,-1.049706 -1.049719,-1.049703 z m 6.399234,-0.542948 c 0,-0.477799 0.390927,-0.868725 0.868723,-0.868725 0.477804,0 0.868732,0.390926 0.868732,0.868725 0,0.477799 -0.390928,0.868725 -0.868732,0.868725 -0.477796,0 -0.868723,-0.390926 -0.868723,-0.868725 z m -6.350249,-5.287286 -1.028848,-2.681112 1.003111,-1.003106 1.003101,-1.003106 8.333163,1.312301 8.333153,1.312313 -5.212355,2.293548 c -2.866788,1.26144 -6.605133,2.328807 -8.307426,2.371905 l -3.095063,0.07841 z M 129.2471,73.189634 c 0,-0.47781 0.39093,-0.868725 0.86873,-0.868725 0.4778,0 0.86872,0.390915 0.86872,0.868725 0,0.477787 -0.39092,0.868714 -0.86872,0.868714 -0.4778,0 -0.86873,-0.390927 -0.86873,-0.868714 z m -67.760607,0 c 0,-0.47781 0.390918,-0.868725 0.868721,-0.868725 0.477796,0 0.868723,0.390915 0.868723,0.868725 0,0.477787 -0.390927,0.868714 -0.868723,0.868714 -0.477804,0 -0.868721,-0.390927 -0.868721,-0.868714 z"
         id="path32" /><path
         style="fill:#00088d;fill-opacity:1;stroke:none;stroke-width:1.96714"
         d="m 681.19971,470.45248 -7.29954,-4.48921 6.6792,-2.41523 c 12.60856,-4.55931 57.83736,-37.1583 64.44506,-46.44924 0.79488,-1.11766 1.45879,-10.08002 1.47535,-19.91635 l 0.0301,-17.88425 -12.29463,-11.77859 c -15.07306,-14.44041 -33.49152,-28.11615 -48.9976,-36.3808 l -11.68104,-6.22593 0.58631,-8.79322 0.58632,-8.79322 35.40853,-19.3427 35.40853,-19.3427 510.9648,-0.0632 510.9648,-0.0632 V 371.7896 475.06449 l -539.4883,-0.0614 -539.48838,-0.0614 z"
         id="path9"
         transform="scale(0.26458333)" /><path
         style="fill:#00088d;fill-opacity:1;stroke:none;stroke-width:1.96714"
         d="m 357.03604,480.49143 c 0.54097,-0.56207 27.09737,-12.91685 59.01422,-27.45504 l 58.03065,-26.43309 68.84993,-45.25722 c 68.49625,-45.02474 102.20748,-65.88361 110.65167,-68.46588 5.22968,-1.59926 5.73555,1.24697 1.85991,10.4644 -4.76241,11.32646 -123.46519,89.11475 -187.73886,123.02902 -32.7439,17.27745 -36.78137,18.87374 -64.43971,25.47731 -29.76684,7.10698 -48.03884,10.52223 -46.22781,8.6405 z"
         id="path10"
         transform="scale(0.26458333)" /><path
         style="fill:#00088d;fill-opacity:1;stroke:none;stroke-width:1.96714"
         d="m 137.69985,466.50763 c 47.95562,-20.49447 92.58415,-45.92483 140.37142,-79.98688 39.59361,-28.22173 74.56205,-49.11785 125.39468,-74.93221 35.63464,-18.09636 67.71625,-31.27426 76.12615,-31.26971 1.29656,7e-4 -8.26518,6.05154 -21.24831,13.44632 -33.10865,18.85762 -48.90959,28.92343 -116.0613,73.93553 -65.04018,43.59672 -92.84746,60.77598 -125.85014,77.74984 -36.46853,18.75641 -69.84153,29.71708 -89.9401,29.53896 -8.27601,-0.0734 -8.02735,-0.26154 11.2076,-8.48185 z"
         id="path11"
         transform="scale(0.26458333)" /><path
         style="fill:#00088d;fill-opacity:1;stroke:none;stroke-width:1.96714"
         d="m 111.17331,348.86347 c 0.0164,-1.45569 1.15569,-6.63016 2.5317,-11.49884 l 2.50184,-8.85213 30.41791,-15.20377 c 16.72985,-8.36207 39.97382,-19.26641 51.65326,-24.23187 21.45581,-9.12183 31.27817,-10.95159 18.92142,-3.5248 -3.69346,2.21989 -24.00432,15.11139 -45.13524,28.64778 -48.38165,30.99311 -60.93007,38.13661 -60.89089,34.66363 z"
         id="path12"
         transform="scale(0.26458333)" /><path
         style="display:inline;fill:#ffffff;fill-opacity:1;stroke:none;stroke-width:1.96714"
         d="m 526.21014,472.70212 c -29.22064,-1.62481 -33.63497,-2.34975 -44.26066,-7.26866 l -11.80285,-5.46383 15.18873,-7.05197 c 22.98721,-10.67273 60.16165,-34.36199 149.41815,-95.21611 l 32.80844,-22.36844 10.22563,6.02925 c 18.82121,11.09738 32.26575,21.1288 42.89813,32.00769 l 10.54789,10.79247 -1.44676,14.46852 c -0.79571,7.95768 -2.13202,16.27934 -2.96957,18.49258 -0.83757,2.21324 -11.16799,10.40146 -22.95648,18.19605 -21.02006,13.89854 -21.67869,14.17225 -34.13471,14.18577 -14.691,0.0159 -35.17709,4.60436 -69.22735,15.50534 -29.70322,9.50931 -33.85814,9.93949 -74.28859,7.69134 z"
         id="path20"
         transform="scale(0.26458333)" /><path
         style="display:inline;fill:#ffffff;fill-opacity:1;stroke:none;stroke-width:1.96714"
         d="m 286.21898,473.70891 c -16.57047,-1.25085 -50.77195,-6.58955 -57.79784,-9.02198 l -7.00348,-2.42467 23.05674,-14.64646 c 43.82007,-27.83607 103.70803,-67.45886 143.96086,-95.2467 36.38351,-25.11672 45.8791,-30.55198 95.48136,-54.65337 l 55.07994,-26.76295 88.02955,-1.17717 c 48.41625,-0.64744 88.02954,-0.69905 88.02954,-0.11469 0,2.7177 -42.4682,20.98887 -51.69547,22.24104 -9.00715,1.22229 -18.44303,6.64972 -76.17426,43.81469 -153.38874,98.74529 -173.81885,109.78563 -241.44828,130.47762 -29.07573,8.89604 -33.61939,9.46972 -59.51866,7.51464 z"
         id="path21"
         transform="scale(0.26458333)" /><path
         style="display:inline;fill:#ffffff;fill-opacity:1;stroke:none;stroke-width:1.96714"
         d="m 128.84772,449.703 c 0,-3.27536 1.41506,-14.88954 3.14458,-25.80929 3.10105,-19.57926 3.31889,-20.08521 15.73712,-36.55024 8.88133,-11.77553 12.59255,-18.412 12.59255,-22.51822 0,-6.80494 -1.07492,-6.96184 -19.67141,-2.87136 -15.25517,3.35553 -20.3229,3.62917 -18.70414,1.00995 2.1361,-3.45627 44.50008,-30.70597 73.78408,-47.45997 15.68795,-8.97541 41.39465,-22.24828 57.12601,-29.49527 l 28.60246,-13.17635 55.40426,-3.20096 55.40424,-3.20096 16.31745,6.2072 c 8.97461,3.41397 17.00497,6.82775 17.84526,7.58619 0.84028,0.75844 -8.89707,7.00227 -21.63855,13.87517 -35.16266,18.96716 -71.50207,40.86127 -122.50694,73.80915 -62.11826,40.12685 -134.43415,82.07054 -149.01091,86.42728 -3.90662,1.16763 -4.42606,0.62398 -4.42606,-4.63232 z"
         id="path22"
         transform="scale(0.26458333)" /></g><g
       id="g15"
       inkscape:label="Drill"
       style="display:none"><path
         style="display:inline;fill:#000000;fill-opacity:1;stroke:#000000;stroke-width:0.608623;stroke-dasharray:none;stroke-opacity:1"
         d="m 286.17192,130.23966 c -1.09856,-1.09858 -3.98947,-1.68653 -16.98212,-3.45387 -5.02052,-0.68291 -13.51046,-2.47458 -18.86655,-3.98148 l -9.73833,-2.73982 -9.21861,3.06194 c -5.07024,1.68407 -13.91771,4.26197 -19.83642,4.64674 l -13.056,0.84875 -1.42612,-2.84715 4.09433,-0.0409 10.08345,-0.54139 c 5.79392,-0.31108 14.09286,-2.13462 18.48726,-3.4634 l 7.9898,-2.41599 -40.85144,-20.570079 -40.85144,-20.570086 -10.88102,-2.691939 -10.88103,-2.691939 h -14.326 -14.326 l -8.567418,2.109212 c -4.71209,1.160066 -12.783773,4.363035 -12.21872,4.593569 l 1.813959,0.740069 C 137.51099,108.18674 127.08697,102.06084 144.13303,110.9035 l 13.69235,7.10292 12.51543,3.86318 12.51541,3.86318 h 7.00254 7.00254 l 0.86647,1.402 0.86649,1.40201 -44.11784,-0.59388 -44.11783,-0.59386 -14.304868,-3.49818 -14.30488,-3.49819 -13.079818,3.44091 c -7.193899,1.89249 -16.634621,3.85486 -20.97938,4.36083 l -7.899565,0.91992 -7.185103,-14.85788 -7.185101,-14.857869 4.130787,-1.54213 4.130789,-1.54214 5.020527,0.99124 5.020528,0.99126 -0.01024,-5.88772 c -0.0056,-3.23824 -0.935509,-9.173872 -2.066464,-13.190295 l -2.056284,-7.302581 -5.996357,12.779526 c -3.297997,7.02873 -8.089186,15.24376 -8.173108,14.31974 -0.08391,-0.92402 4.503475,-10.61028 7.720238,-17.589129 l 5.848661,-12.688832 11.038568,0.89071 11.038567,0.890709 10.341663,3.264987 10.341662,3.264986 11.15566,-3.130115 11.155648,-3.130127 55.35396,-0.833255 55.35395,-0.833255 11.88603,3.671223 11.88602,3.671221 10.76042,-3.92444 10.76043,-3.924438 105.60304,-0.824967 105.60304,-0.824972 1.70368,1.70368 1.70368,1.703676 0.0101,27.896178 0.0101,27.896179 -2.10977,2.5421 -2.10977,2.54211 h -91.66732 c -50.41702,0 -92.10385,-0.43653 -92.63739,-0.97006 z M 469.09807,99.260911 V 69.137757 l -89.00026,0.02008 -88.5402,0.756139 -7.28203,0.391617 -6.82199,1.127677 1.02958,4.78558 1.02959,4.785581 -2.51532,-4.564114 -2.51531,-5.605057 -13.07159,0.22027 -6.82591,1.261227 -6.38975,2.687454 -6.38977,2.687455 16.43082,8.410155 c 9.03695,4.6256 15.75235,8.45174 14.92312,8.50256 -0.82924,0.0508 -9.50208,-3.88791 -19.27301,-8.75273 l -17.7653,-8.845153 -13.22039,-3.23983 -13.2204,-3.23982 -32.31704,1.378013 -32.31705,1.378013 9.16461,3.150423 c 8.89059,3.056222 40.59284,18.534144 64.77407,31.624513 15.63669,8.46483 30.65403,13.35592 51.22046,16.68229 9.26354,1.49827 17.27477,3.15608 17.80272,3.68403 0.52796,0.52796 41.48927,0.95993 91.02515,0.95993 h 90.0652 z m -192.34573,-8.37492 c 1.31195,-1.267492 2.52673,-4.22203 3.0659,-6.23024 l -0.22332,-3.879007 0.87618,5.563857 -0.32741,5.33615 -2.73848,0.89409 -4.33241,1.869986 z m 195.00917,-19.179996 -0.0946,-3.481065 v 30.123171 30.123159 l 0.0946,-3.61119 c 0.21706,-8.28793 0.22517,-44.86636 0,-53.154075 z M 65.755316,122.79543 c 5.4538,-1.61555 10.394936,-3.70123 10.980296,-4.63487 l 1.161879,-1.61619 5.227871,1.96805 c 2.937176,1.10571 11.35392,3.21285 18.721998,4.63486 l 12.29245,1.94145 26.95895,0.50516 25.85485,-0.13888 -6.04027,-2.18839 -6.04027,-2.18838 c -2.4363,-0.90073 -12.60302,-5.08109 -28.08367,-13.83793 -11.04516,-6.19744 -26.46515,-14.688189 -34.266648,-18.868309 l -14.18456,-7.600237 1.40503,-1.545587 1.40503,-1.545589 -2.06786,1.180882 -2.06786,1.18089 -9.900378,-3.406229 C 61.666945,74.762699 53.645916,72.627448 49.287643,71.891126 l -7.924131,-1.338777 1.180473,4.313228 c 0.64926,2.372279 1.642538,7.599395 2.207287,11.615814 0.564748,4.01643 1.400909,9.14869 1.858133,11.40503 l 0.831318,4.102449 14.115296,7.21658 c 7.763414,3.96913 18.89076,7.93308 18.47619,8.6331 -0.405397,0.68452 -15.354271,-5.3417 -25.181658,-10.36223 C 35.928864,97.809781 35.057779,97.531421 31.261707,99.938121 l -2.419743,1.534119 5.500128,12.13027 5.50013,12.13027 h 7.998546 7.998547 z"
         id="path31"
         sodipodi:nodetypes="csscsscccsscccccccsscscccccccccccssccccccccscssscccccccccccccccccccccsccccccccccccccccssscccccsssssccsscccccsscccsssscsscccccsscccccsscssscsssscccccs" /><path
         style="fill:#007f8d;fill-opacity:1;stroke:none;stroke-width:3.93428"
         d="M 1113.4016,483.177 C 1089.0641,481.03659 986.97662,462.29255 954.06325,453.92126 905.74204,441.63108 878.1641,429.52415 740.81136,360.30202 668.7626,323.99137 599.33326,290.81907 586.52392,286.58579 l -23.2897,-7.69686 113.77818,-4.60515 113.77817,-4.60515 43.2771,10.11171 c 33.39362,7.80243 60.48875,18.17592 118.64235,45.42274 74.35528,34.83783 75.57858,35.24712 91.28378,30.54171 19.9816,-5.98662 22.5964,-15.37261 14.7331,-52.88518 -3.1567,-15.05969 -5.0521,-28.06869 -4.2119,-28.9089 6.5138,-6.51382 77.6342,-8.07541 374.6127,-8.22537 l 339.3318,-0.17134 v 110.15988 110.15988 l -319.6604,-0.66137 c -175.8132,-0.36375 -326.742,-1.28417 -335.3975,-2.04539 z"
         id="path14"
         transform="scale(0.26458333)" /><path
         style="fill:#007f8d;fill-opacity:1;stroke:none;stroke-width:3.93428"
         d="m 417.03383,467.56207 c -4.32771,-0.91949 -22.03197,-4.33051 -39.34281,-7.58004 -46.27089,-8.68581 -76.16884,-19.25448 -138.26421,-48.87518 -36.21623,-17.27585 -56.402,-29.1168 -57.81444,-33.9139 -1.19357,-4.05377 -5.87184,-28.44491 -10.39615,-54.20252 -4.52431,-25.75762 -9.26939,-48.52023 -10.54461,-50.58359 -1.30374,-2.1095 0.91062,-2.82464 5.05909,-1.63386 4.05773,1.16473 17.6593,4.15666 30.22572,6.64875 32.66521,6.47793 87.32783,25.49324 114.85181,39.95313 12.98313,6.82077 66.98115,36.32595 119.99559,65.56706 53.01444,29.24111 114.09416,60.78967 135.73271,70.1079 l 39.34281,16.94225 -90.48847,-0.3791 c -49.76866,-0.20851 -94.02933,-1.13141 -98.35704,-2.0509 z"
         id="path15"
         transform="scale(0.26458333)" /><path
         style="display:inline;fill:#ffffff;fill-opacity:1;stroke:none;stroke-width:1.96714"
         d="m 150.77806,469.65485 c -4.78061,-9.0735 -37.66747,-82.80124 -37.66747,-84.4452 0,-1.03197 3.61173,-3.90622 8.02607,-6.38722 5.84468,-3.28489 9.72086,-4.17612 14.26177,-3.27914 3.42964,0.67747 27.92343,11.777 54.43065,24.66561 26.50722,12.88862 57.93229,27.50037 69.8335,32.47057 11.9012,4.97019 23.40897,9.80627 25.57283,10.74685 3.36713,1.46361 2.09107,2.57704 -8.85214,7.72397 -7.03253,3.30761 -24.73679,9.59869 -39.34281,13.98018 -25.82248,7.74618 -27.35637,7.96635 -55.50252,7.96661 -25.5655,2.3e-4 -29.15794,-0.40178 -30.75988,-3.44223 z"
         id="path16"
         transform="scale(0.26458333)" /><path
         style="display:inline;fill:#ffffff;fill-opacity:1;stroke:none;stroke-width:1.96714"
         d="m 103.27489,369.8524 c 0,-0.36369 3.69077,-7.15832 8.20172,-15.09916 4.51095,-7.94084 14.81164,-28.1587 22.89041,-44.92858 l 14.68868,-30.49068 3.64774,11.80285 c 6.06363,19.61982 9.58567,41.75828 9.58567,60.25257 0,17.1669 -0.0903,17.50345 -4.42607,16.49564 -28.37806,-6.59627 -30.77352,-6.70425 -42.94163,-1.9356 -6.40559,2.51033 -11.64652,4.26666 -11.64652,3.90296 z"
         id="path17"
         transform="scale(0.26458333)" /><path
         style="display:inline;fill:#ffffff;fill-opacity:1;stroke:none;stroke-width:1.96714"
         d="M 644.23859,458.62787 C 599.29971,444.46128 596.3105,443.18388 537.02942,412.81307 472.47855,379.74246 327.61358,301.68299 327.5604,299.94217 c -0.0566,-1.85401 28.01343,-11.51134 51.11419,-17.5855 22.34245,-5.87478 23.24586,-5.94847 73.07665,-5.96086 l 50.45454,-0.0125 42.00109,10.10934 42.00107,10.10934 81.63634,40.87478 c 44.89998,22.48112 113.74639,57.17422 152.99199,77.09576 l 71.35565,36.22099 -23.16071,6.52552 c -41.65501,11.73626 -58.59805,13.81351 -121.51773,14.89827 l -57.04709,0.98351 z"
         id="path18"
         transform="scale(0.26458333)" /><path
         style="display:inline;fill:#ffffff;fill-opacity:1;stroke:none;stroke-width:1.96714"
         d="m 1010.9276,341.65564 c -10.9198,-6.1468 -35.46804,-19.14292 -54.55165,-28.88026 -19.08361,-9.73735 -34.71391,-18.18941 -34.734,-18.78236 -0.0776,-2.28948 44.82356,-19.53786 55.89649,-21.47216 6.41979,-1.12146 22.09948,-2.03901 34.84376,-2.03901 h 23.1714 l 9.9087,19.7159 c 5.4498,10.84375 9.8893,22.13022 9.8655,25.08105 -0.064,8.01354 -7.113,22.11588 -15.2172,30.44618 -3.9471,4.05723 -7.6609,7.316 -8.2527,7.24171 -0.5919,-0.0743 -10.0105,-5.16426 -20.9303,-11.31105 z"
         id="path19"
         transform="scale(0.26458333)" /></g></g></svg>
